<svg width="16" height="16" viewBox="0 0 16 16" fill="none" xmlns="http://www.w3.org/2000/svg">
<path fill-rule="evenodd" clip-rule="evenodd" d="M7 2C4.23858 2 2 4.23858 2 7C2 9.76142 4.23858 12 7 12C8.37926 12 9.62648 11.4428 10.5321 10.5389C11.4401 9.63275 12 8.38271 12 7C12 4.23858 9.76142 2 7 2ZM0 7C0 3.13401 3.13401 0 7 0C10.866 0 14 3.13401 14 7C14 8.57401 13.4796 10.0277 12.6028 11.1968L15.1989 13.7929C15.5895 14.1834 15.5895 14.8166 15.1989 15.2071C14.8084 15.5976 14.1752 15.5976 13.7847 15.2071L11.1874 12.6098C10.02 13.4824 8.56981 14 7 14C3.13401 14 0 10.866 0 7Z" fill="#94A3B8"/>
</svg>
